 http://s9.postimage.org/rh5kt2w8f/g_ZIy_F.jpg

SCREENS
 
http://s11.postimage.org/ibdvpx6xf/In_Time_2011_MPEG_TS_High_Quality_MAGICUP.jpg

Format                           : MPEG-TS
File size                        : 5.02 GiB
Duration                         : 1h 44mn
Overall bit rate mode            : Variable
Overall bit rate                 : 6 855 Kbps
Maximum Overall bit rate         : 40.0 Mbps

Video
ID                               : 4113 (0x1011)
Menu ID                          : 1 (0x1)
Format                           : AVC
Format/Info                      : Advanced Video Codec
Format profile                   : High@L3.0
Format settings, CABAC           : Yes
Format settings, ReFrames        : 2 frames
Format settings, GOP             : M=3, N=13
Codec ID                         : 27
Duration                         : 1h 44mn
Bit rate mode                    : Variable
Bit rate                         : 6 063 Kbps
Maximum bit rate                 : 7 200 Kbps
Width                            : 720 pixels
Height                           : 480 pixels
Display aspect ratio             : 16:9
Frame rate                       : 29.970 fps
Standard                         : NTSC
Color space                      : YUV
Chroma subsampling               : 4:2:0
Bit depth                        : 8 bits
Scan type                        : Interlaced
Scan order                       : Top Field First
Bits/(Pixel*Frame)               : 0.585
Stream size                      : 4.44 GiB (88%)

Audio
ID                               : 4352 (0x1100)
Menu ID                          : 1 (0x1)
Format                           : AC-3
Format/Info                      : Audio Coding 3
Mode extension                   : CM (complete main)
Codec ID                         : 129
Duration                         : 1h 44mn
Bit rate mode                    : Constant
Bit rate                         : 448 Kbps
Channel(s)                       : 6 channels
Channel positions                : Front: L C R, Side: L R, LFE
Sampling rate                    : 48.0 KHz
Bit depth                        : 16 bits
Compression mode                 : Lossy
Delay relative to video          : 15ms
Stream size                      : 336 MiB (7%)



Download SAMPLE FILE :